<svg xmlns="http://www.w3.org/2000/svg" xmlns:xlink="http://www.w3.org/1999/xlink" width="61" height="61" version="1.1" viewBox="0 0 61 61"><title>i-calendar--secondary-contrast</title><desc>Created with Sketch.</desc><defs><polygon id="path-1" points=".313 .208 3.004 .208 3.004 5.652 .313 5.652 .313 .208"/><polygon id="path-3" points=".054 .208 2.745 .208 2.745 5.652 .054 5.652 .054 .208"/><polygon id="path-5" points="0 35.542 35 35.542 35 .751 0 .751"/></defs><g id="Cards" fill="none" fill-rule="evenodd" stroke="none" stroke-width="1"><g id="Horizontal-cards" transform="translate(-56.000000, -1036.000000)"><g id="i-calendar--secondary-contrast" transform="translate(56.000000, 1036.000000)"><circle id="Oval-37-Copy-2" cx="30.264" cy="30.39" r="30" fill="#FFF"/><g id="calendar" transform="translate(12.763583, 12.014724)"><g id="Group-3" transform="translate(5.250000, 0.542275)"><mask id="mask-2" fill="#fff"><use xlink:href="#path-1"/></mask><path id="Fill-1" fill="#F77B42" d="M1.658475,5.651975 C2.407475,5.651975 3.004225,5.049975 3.004225,4.306225 L3.004225,1.553475 C3.004225,0.811475 2.402225,0.207725 1.658475,0.207725 C0.909475,0.207725 0.312725,0.809725 0.312725,1.553475 L0.312725,4.306225 C0.312725,5.048225 0.914725,5.651975 1.658475,5.651975" mask="url(#mask-2)"/></g><g id="Group-6" transform="translate(26.250000, 0.542275)"><mask id="mask-4" fill="#fff"><use xlink:href="#path-3"/></mask><path id="Fill-4" fill="#F77B42" d="M1.3993,5.651975 C2.1483,5.651975 2.74505,5.049975 2.74505,4.306225 L2.74505,1.553475 C2.74505,0.811475 2.14305,0.207725 1.3993,0.207725 C0.6503,0.207725 0.05355,0.809725 0.05355,1.553475 L0.05355,4.306225 C0.05355,5.048225 0.65555,5.651975 1.3993,5.651975" mask="url(#mask-4)"/></g><mask id="mask-6" fill="#fff"><use xlink:href="#path-5"/></mask><path id="Fill-7" fill="#F77B42" d="M26.341,16.227525 L30.863,16.227525 L30.863,11.705525 L26.341,11.705525 L26.341,16.227525 Z M26.341,23.085775 L30.863,23.085775 L30.863,18.563775 L26.341,18.563775 L26.341,23.085775 Z M26.341,29.669275 L30.863,29.669275 L30.863,25.147275 L26.341,25.147275 L26.341,29.669275 Z M18.93325,16.227525 L23.45525,16.227525 L23.45525,11.705525 L18.93325,11.705525 L18.93325,16.227525 Z M18.93325,23.085775 L23.45525,23.085775 L23.45525,18.563775 L18.93325,18.563775 L18.93325,23.085775 Z M18.93325,29.669275 L23.45525,29.669275 L23.45525,25.147275 L18.93325,25.147275 L18.93325,29.669275 Z M11.52725,16.227525 L16.04925,16.227525 L16.04925,11.705525 L11.52725,11.705525 L11.52725,16.227525 Z M11.52725,23.085775 L16.04925,23.085775 L16.04925,18.563775 L11.52725,18.563775 L11.52725,23.085775 Z M11.52725,29.669275 L16.04925,29.669275 L16.04925,25.147275 L11.52725,25.147275 L11.52725,29.669275 Z M4.137,16.227525 L8.659,16.227525 L8.659,11.705525 L4.137,11.705525 L4.137,16.227525 Z M4.137,23.085775 L8.659,23.085775 L8.659,18.563775 L4.137,18.563775 L4.137,23.085775 Z M4.137,29.669275 L8.659,29.669275 L8.659,25.147275 L4.137,25.147275 L4.137,29.669275 Z M31.51575,3.783275 L30.74575,3.783275 L30.74575,4.847275 C30.74575,6.555275 29.35625,7.944775 27.64825,7.944775 C25.942,7.944775 24.5525,6.555275 24.5525,4.847275 L24.5525,3.783275 L10.024,3.783275 L10.024,4.847275 C10.024,6.555275 8.6345,7.944775 6.92825,7.944775 C5.22025,7.944775 3.8325,6.555275 3.8325,4.847275 L3.8325,3.783275 L3.48425,3.783275 C1.5715,3.783275 0,5.346025 0,7.272775 L0,32.052775 C0,33.967275 1.55925,35.542275 3.48425,35.542275 L31.51575,35.542275 C33.4285,35.542275 35,33.979525 35,32.052775 L35,7.272775 C35,5.358275 33.44075,3.783275 31.51575,3.783275 L31.51575,3.783275 Z" mask="url(#mask-6)"/></g></g></g></g></svg>