<svg xmlns="http://www.w3.org/2000/svg" xmlns:xlink="http://www.w3.org/1999/xlink" width="104" height="104" version="1.1" viewBox="0 0 104 104"><title>i-complex--regreport</title><desc>Created with Sketch.</desc><defs><ellipse id="path-1" cx="51.835" cy="51.955" rx="51.191" ry="51.191"/></defs><g id="CMS-Pages" fill="none" fill-rule="evenodd" stroke="none" stroke-width="1"><g id="Beta-Home-2-Copy-11" transform="translate(-340.000000, -524.000000)"><g id="i-complex--regreport" transform="translate(340.000000, 524.000000)"><mask id="mask-2" fill="#fff"><use xlink:href="#path-1"/></mask><use id="Mask" fill="#FFF" xlink:href="#path-1"/><g id="Group-5" mask="url(#mask-2)"><g transform="translate(22.000000, 18.000000)"><rect id="Rectangle-76-Copy-28" width="59.456" height="90.589" x="0" y=".411" fill="#D6D7D9" rx="2"/><rect id="Rectangle-26" width="29.669" height="3.012" x="21.496" y="9.107" fill="#AEB0B5" rx="1"/><rect id="Rectangle-26-Copy" width="29.669" height="3.012" x="21.496" y="16.636" fill="#AEB0B5" rx="1"/><rect id="Rectangle-26-Copy-18" width="29.669" height="3.012" x="21.496" y="28.107" fill="#AEB0B5" rx="1"/><rect id="Rectangle-26-Copy-2" width="29.669" height="3.012" x="21.496" y="35.636" fill="#AEB0B5" rx="1"/><g id="Group-4" fill="none" stroke-width="1" transform="translate(7.000000, 8.000000)"><ellipse id="Oval-34-Copy-9" cx="6" cy="6" fill="#112E51" rx="6" ry="6"/><path id="Fill-3-Copy-3" fill="#FFF" stroke="#FFF" d="M5.45161905,8.97880821 C5.34838095,9.08460519 5.20552381,9.15019151 5.04761905,9.15019151 C4.88990476,9.15019151 4.74704762,9.08460519 4.64361905,8.97880821 L2.16742857,6.44124224 C2.064,6.33525006 2,6.18885202 2,6.02703339 C2,5.70359133 2.25580952,5.44144124 2.57142857,5.44144124 C2.72933333,5.44144124 2.872,5.50702756 2.97542857,5.61301974 L5.04761905,7.73657207 L9.02457143,3.66104592 C9.128,3.55505374 9.27085714,3.48946742 9.42857143,3.48946742 C9.74419048,3.48946742 10,3.7516175 10,4.07505957 C10,4.236683 9.936,4.38327623 9.8327619,4.48926841 L5.45161905,8.97880821 Z"/></g><g id="Group-4-Copy" fill="none" stroke-width="1" transform="translate(7.000000, 27.000000)"><ellipse id="Oval-34-Copy-9" cx="6" cy="6" fill="#FFF" rx="6" ry="6"/><path id="Fill-3-Copy-3" fill="#F77B42" stroke="#F77B42" d="M9.8327619,4.48926841 L9.8327619,4.48926841 L5.45161905,8.97880821 C5.34838095,9.08460519 5.20552381,9.15019151 5.04761905,9.15019151 C4.88990476,9.15019151 4.74704762,9.08460519 4.64361905,8.97880821 L2.16742857,6.44124224 C2.064,6.33525006 2,6.18885202 2,6.02703339 C2,5.70359133 2.25580952,5.44144124 2.57142857,5.44144124 C2.72933333,5.44144124 2.872,5.50702756 2.97542857,5.61301974 L5.04761905,7.73657207 L9.02457143,3.66104592 C9.128,3.55505374 9.27085714,3.48946742 9.42857143,3.48946742 C9.74419048,3.48946742 10,3.7516175 10,4.07505957 C10,4.236683 9.936,4.38327623 9.8327619,4.48926841"/></g><rect id="Rectangle-26-Copy-19" width="29.669" height="3.012" x="21.496" y="47.107" fill="#AEB0B5" rx="1"/><rect id="Rectangle-26-Copy-3" width="29.669" height="3.012" x="21.496" y="54.636" fill="#AEB0B5" rx="1"/><g id="Group-4-Copy-2" fill="none" stroke-width="1" transform="translate(7.000000, 46.000000)"><ellipse id="Oval-34-Copy-9" cx="6" cy="6" fill="#FFF" rx="6" ry="6"/><path id="Fill-3-Copy-3" fill="#F77B42" stroke="#F77B42" d="M9.8327619,4.48926841 L9.8327619,4.48926841 L5.45161905,8.97880821 C5.34838095,9.08460519 5.20552381,9.15019151 5.04761905,9.15019151 C4.88990476,9.15019151 4.74704762,9.08460519 4.64361905,8.97880821 L2.16742857,6.44124224 C2.064,6.33525006 2,6.18885202 2,6.02703339 C2,5.70359133 2.25580952,5.44144124 2.57142857,5.44144124 C2.72933333,5.44144124 2.872,5.50702756 2.97542857,5.61301974 L5.04761905,7.73657207 L9.02457143,3.66104592 C9.128,3.55505374 9.27085714,3.48946742 9.42857143,3.48946742 C9.74419048,3.48946742 10,3.7516175 10,4.07505957 C10,4.236683 9.936,4.38327623 9.8327619,4.48926841"/></g><rect id="Rectangle-26-Copy-20" width="29.669" height="3.012" x="21.496" y="66.107" fill="#AEB0B5" rx="1"/><rect id="Rectangle-26-Copy-4" width="29.669" height="3.012" x="21.496" y="73.636" fill="#AEB0B5" rx="1"/><g id="Group-4-Copy-3" fill="none" stroke-width="1" transform="translate(7.000000, 65.000000)"><ellipse id="Oval-34-Copy-9" cx="6" cy="6" fill="#FFF" rx="6" ry="6"/><path id="Fill-3-Copy-3" fill="#F77B42" stroke="#F77B42" d="M9.8327619,4.48926841 L9.8327619,4.48926841 L5.45161905,8.97880821 C5.34838095,9.08460519 5.20552381,9.15019151 5.04761905,9.15019151 C4.88990476,9.15019151 4.74704762,9.08460519 4.64361905,8.97880821 L2.16742857,6.44124224 C2.064,6.33525006 2,6.18885202 2,6.02703339 C2,5.70359133 2.25580952,5.44144124 2.57142857,5.44144124 C2.72933333,5.44144124 2.872,5.50702756 2.97542857,5.61301974 L5.04761905,7.73657207 L9.02457143,3.66104592 C9.128,3.55505374 9.27085714,3.48946742 9.42857143,3.48946742 C9.74419048,3.48946742 10,3.7516175 10,4.07505957 C10,4.236683 9.936,4.38327623 9.8327619,4.48926841"/></g></g></g></g></g></g></svg>