<svg xmlns="http://www.w3.org/2000/svg" xmlns:xlink="http://www.w3.org/1999/xlink" width="104" height="104" version="1.1" viewBox="0 0 104 104"><title>i-complex--calendar</title><desc>Created with Sketch.</desc><g id="CMS-Pages" fill="none" fill-rule="evenodd" stroke="none" stroke-width="1"><g id="Beta-Home-2-Copy-11" transform="translate(-580.000000, -524.000000)"><g id="i-complex--calendar" transform="translate(580.000000, 524.000000)"><ellipse id="Mask-Copy" cx="52" cy="52" fill="#FFF" rx="52" ry="52"/><path id="Rectangle-125-Copy" fill="#D6D7D9" d="M18,23.0008506 C18,21.8958113 18.9004377,21 19.9968022,21 L85.2174017,21 C86.3202051,21 87.2142039,21.8878114 87.2142039,23.0008506 L87.2142039,81.8027476 C87.2142039,82.9077869 86.3137662,83.8035982 85.2174017,83.8035982 L19.9968022,83.8035982 C18.8939988,83.8035982 18,82.9157868 18,81.8027476 L18,23.0008506 Z"/><ellipse id="Oval-34-Copy-8" cx="28.437" cy="37.486" fill="#F1F1F1" rx="4.437" ry="4.486"/><ellipse id="Oval-34-Copy-13" cx="28.437" cy="49.486" fill="#F1F1F1" rx="4.437" ry="4.486"/><ellipse id="Oval-34-Copy-22" cx="28.437" cy="61.486" fill="#F1F1F1" rx="4.437" ry="4.486"/><ellipse id="Oval-34-Copy-27" cx="28.437" cy="77.486" fill="#F1F1F1" rx="4.437" ry="4.486"/><rect id="Rectangle-128-Copy-6" width="63.89" height="2" x="20" y="29" fill="#112E51"/><rect id="Rectangle-128-Copy-7" width="46" height="4" x="35" y="36" fill="#AEB0B5" rx="1"/><rect id="Rectangle-128-Copy-8" width="46" height="4" x="35" y="47" fill="#AEB0B5" rx="1"/><rect id="Rectangle-128-Copy-9" width="46" height="4" x="35" y="59" fill="#AEB0B5" rx="1"/><rect id="Rectangle-128-Copy-10" width="46" height="4" x="35" y="75" fill="#AEB0B5" rx="1"/><rect id="Rectangle-128-Copy-11" width="63.89" height="2" x="20" y="69" fill="#112E51"/><rect id="Rectangle-126-Copy-2" width="5.324" height="10.766" x="29" y="15" fill="#F77B42" rx="1"/><rect id="Rectangle-126-Copy-3" width="5.32" height="10.766" x="70" y="15" fill="#F77B42" rx="1"/></g></g></g></svg>