<svg xmlns="http://www.w3.org/2000/svg" xmlns:xlink="http://www.w3.org/1999/xlink" width="105" height="105" version="1.1" viewBox="0 0 105 105"><title>i-complex--data</title><desc>Created with Sketch.</desc><g id="CMS-Pages" fill="none" fill-rule="evenodd" stroke="none" stroke-width="1"><g id="Beta-Home-2-Copy-11" transform="translate(-819.000000, -523.000000)"><g id="i-complex--data" transform="translate(819.000000, 523.000000)"><g id="Group-6-Copy"><circle id="Mask" cx="52.904" cy="52.067" r="52" fill="#FFF"/><g id="Group-3" transform="translate(17.564460, 20.000000)"><polyline id="Fill-1" fill="#F77B42" points="10.451 43.858 6.532 47.894 .997 46.941 3.61 51.929 .997 56.917 6.532 55.965 10.451 60 11.259 54.423 16.293 51.929 11.259 49.435 10.451 43.858"/><polyline id="Fill-2" fill="#AEB0B5" points="22.785 16.435 25.745 19.482 26.355 15.271 30.156 13.388 26.355 11.505 25.745 7.294 22.785 10.341 18.607 9.621 20.579 13.388 18.607 17.154 22.785 16.435"/><polyline id="Fill-3" fill="#AEB0B5" points="8.136 7.294 5.176 10.341 .997 9.621 2.97 13.388 .997 17.154 5.176 16.435 8.136 19.482 8.745 15.271 12.547 13.388 8.745 11.505 8.136 7.294"/><polyline id="Fill-4" fill="#AEB0B5" points="8.136 25.576 5.176 28.623 .997 27.903 2.97 31.67 .997 35.436 5.176 34.717 8.136 37.764 8.745 33.553 12.547 31.67 8.745 29.787 8.136 25.576"/><polyline id="Fill-5" fill="#AEB0B5" points="22.785 34.718 25.745 37.766 26.355 33.554 30.157 31.671 26.355 29.788 25.745 25.576 22.785 28.623 18.607 27.904 20.579 31.671 18.607 35.438 22.785 34.718"/><polygon id="Fill-6" fill="#AEB0B5" points="65.659 7.235 37.119 7.235 37.119 19.423 65.659 19.423 65.659 25.517 37.119 25.517 37.119 37.705 65.659 37.705 65.659 43.799 18.296 43.799 18.296 55.987 65.659 55.987 65.659 62.082 68.695 62.082 68.695 .531 65.659 .531"/></g><path id="Imported-Layers" fill="#022C53" d="M36.9847666,77.0803315 C37.9762543,75.3936883 38.5551704,73.4331781 38.5551704,71.332429 C38.5551704,65.0740951 33.5061015,60 27.2775852,60 C21.0490689,60 16,65.0740951 16,71.332429 C16,77.5912352 21.0490689,82.6648581 27.2775852,82.6648581 C29.3681675,82.6648581 31.3191898,82.0831267 32.9976704,81.0868173 L40.2070777,88.3317569 C40.7173885,88.8445493 41.4222376,89.1613851 42.2008608,89.1613851 C42.6635713,89.1613851 43.1002281,89.04941 43.4854621,88.8509522 C44.3967286,88.3815027 45.0202571,87.4281368 45.0202571,86.3282779 C45.0202571,85.5458681 44.7044847,84.8375913 44.1946439,84.325271 L36.9847666,77.0803315 Z M27.2775852,79.8317508 C22.6063154,79.8317508 18.8193963,76.0264156 18.8193963,71.332429 C18.8193963,66.6384425 22.6063154,62.8331073 27.2775852,62.8331073 C31.9488549,62.8331073 35.7357741,66.6384425 35.7357741,71.332429 C35.7357741,76.0264156 31.9488549,79.8317508 27.2775852,79.8317508 L27.2775852,79.8317508 Z"/></g><rect id="Rectangle-968" width="4" height="62" x="83" y="20" fill="#D6D7D9"/></g></g></g></svg>